DataType=double
version=3
OpenSimVersion=4.4-2022-10-11-798caa840
endheader
time	ground_force_r_vx	ground_force_r_vy	ground_force_r_vz	ground_force_r_px	ground_force_r_py	ground_force_r_pz	ground_force_l_vx	ground_force_l_vy	ground_force_l_vz	ground_force_l_px	ground_force_l_py	ground_force_l_pz	ground_torque_r_x	ground_torque_r_y	ground_torque_r_z	ground_torque_l_x	ground_torque_l_y	ground_torque_l_z
4.215	-0.05632061865918448	0.01985399652787544	0.0006177190862394658	1.804655454506658	0	-0.4473844990039971	-52.5035474005573	656.6250799285822	29.58605403089483	2.050353010652867	0	-0.5942193675168747	0	4.417061334749395e-14	0	0	-2.276180858444668	0
4.220000000000001	-0.07851867701186027	0.02733300287305205	0.0009724831321359748	1.823937027036626	0	-0.4477367729056056	-49.64173594266364	643.2847662115726	28.71493013933791	2.052286766291151	0	-0.5944451197084777	0	9.489913195548372e-14	0	0	-2.277305521534238	0
4.225	-0.1118174481808068	0.03848634864364536	0.00151009540125706	1.843374991028468	0	-0.4481117452011816	-46.78443019353884	630.3113078118766	28.02664523284767	2.054285862562005	0	-0.5946747250638169	0	2.066675823531039e-13	0	0	-2.257075708254192	0
4.23	-0.1613705951425284	0.05497783384889986	0.002308349759311561	1.862972058039339	0	-0.4485031445557834	-43.97319261594192	617.8292410152894	27.52383304352866	2.056344746879235	0	-0.5949014585068186	0	4.579591914022352e-13	0	0	-2.220323402369416	0
4.235	-0.2341821831691751	0.07904905081563478	0.003456131602797266	1.882732643470943	0	-0.4489037929428072	-41.23352625520843	605.9302017862875	27.16668829229098	2.058453304864031	0	-0.5951181692252222	0	1.031189023059653e-12	0	0	-2.166245289811201	0
4.24	-0.3393905029068833	0.1136023825311187	0.005036106210474353	1.902662502348903	0	-0.4493064175301776	-38.58720082275588	594.7094998058488	26.91692746477889	2.060600410669264	0	-0.5953171758364868	0	2.354037104135287e-12	0	0	-2.096574794189635	0
4.245	-0.4880315140490194	0.1621030495844295	0.00708485727322221	1.922768088831206	0	-0.449702746483514	-36.06557972736897	584.226079857499	26.71113023247099	2.062767287907321	0	-0.595493991030589	0	5.427649649170085e-12	0	0	-2.008865378868073	0
4.25	-0.6928344346853282	0.2285041071506532	0.009537593795663329	1.94305607059911	0	-0.4500841949825614	-33.67803874658964	574.5457203118779	26.55161232143737	2.064929738247596	0	-0.5956477065725561	0	1.260057683194482e-11	0	0	-1.904178689536764	0
4.255	-0.9667581682288745	0.3167523988864026	0.01214539944994899	1.963532928372268	0	-0.4504412070809762	-31.47188587899345	565.7466022576826	26.45269643088429	2.067058931497771	0	-0.5957771078848491	0	2.936011850307452e-11	0	0	-1.786811870602925	0
4.26	-1.321857015582053	0.4304415390455067	0.01442541555490554	1.984203461321382	0	-0.4507646993272268	-29.47725261844309	557.9214856525986	26.41205178597033	2.06911992479743	0	-0.595880383630461	0	6.846733596743704e-11	0	0	-1.658490808311186	0
4.265000000000001	-1.766290171267249	0.5718705915013006	0.0155941408871665	2.005070728573078	0	-0.4510450265396623	-27.64399851451675	551.1119817678464	26.40211004287676	2.071084701522435	0	-0.5959550963345515	0	1.593717241510362e-10	0	0	-1.518460272225276	0
4.27	-2.300551734032685	0.7409420007405096	0.01463146121923975	2.026133498286752	0	-0.4512741406913326	-25.99024959677121	545.3392800410493	26.39322955764681	2.07293564224488	0	-0.5959991036242034	0	3.691460297161608e-10	0	0	-1.367577055424611	0
4.275	-2.913115821613217	0.9338085098126435	0.01036224110615769	2.04738971352229	0	-0.451444132083149	-24.46540048954174	540.6069195150385	26.32490320549597	2.074662913873275	0	-0.5960146294873125	0	8.480726954029905e-10	0	0	-1.20612325135226	0
4.28	-3.584198386741127	1.14417229146306	0.001633049913671249	2.068832859657406	0	-0.4515480532105962	-23.01780123161469	536.8695184247383	26.19355492156332	2.076266182974794	0	-0.5960077792944654	0	1.927949082498881e-09	0	0	-1.035691011289053	0
4.285	-4.285551592439225	1.363190503796321	-0.01246907837445013	2.090453671239902	0	-0.4515791041495507	-21.63321095979218	534.0995389177972	26.05574611543499	2.0777518459047	0	-0.595985485904133	0	4.329789096702008e-09	0	0	-0.8587429498904982	0
4.29	-4.985650107068799	1.58110308647083	-0.0325579961835577	2.112239994782741	0	-0.4515306892999517	-20.30225864677081	532.236193081681	25.95719435505935	2.079129466079815	0	-0.5959560004801282	0	9.599460892850686e-09	0	0	-0.6758688049192472	0
4.295	-5.653775379264835	1.788528043584276	-0.05881944687672749	2.134178054652015	0	-0.4513961690981668	-19.00958213960849	531.2499419319961	25.98853612439633	2.080411906283343	0	-0.5959255543799319	0	2.099808119049307e-08	0	0	-0.4927673908584183	0
4.3	-6.270226077484311	1.979666292425422	-0.09101135554731561	2.156249576716547	0	-0.4511693846177844	-17.76371334936836	531.1167913613446	26.18798166964999	2.081608633394239	0	-0.5959014498198256	0	4.531953859410187e-08	0	0	-0.3187893402960285	0
4.305	-6.804916545364527	2.145240786841916	-0.1282428746796991	2.178438754523606	0	-0.4508446792643336	-16.55342591879613	531.7722814328431	26.55168890561953	2.082727894929967	0	-0.5958898133834621	0	9.640640885599794e-08	0	0	-0.1588537761045501	0
4.31	-7.210533598259569	2.270746306249944	-0.1684807214025306	2.200735907536056	0	-0.4504168655803726	-15.37234587210195	533.1521299652538	27.04329940362559	2.083780079270847	0	-0.5958921796778865	0	2.013850341486823e-07	0	0	-0.0119911881886523	0
4.315	-7.456397140337542	2.347232740937704	-0.2087183305720896	2.223127970000308	0	-0.4498827591309171	-14.20976015283168	535.2240301418113	27.63434887745118	2.084774434469697	0	-0.5959073074358887	0	4.113736874478136e-07	0	0	0.1230821013711889	0
4.32	-7.473322577564018	2.353072137277595	-0.244029447630125	2.245608397226005	0	-0.4492403024124757	-13.06302095492908	537.9857806412164	28.28974116620105	2.085716877475881	0	-0.5959335828871447	0	8.148007554220627e-07	0	0	0.2451502561910104	0
4.325	-7.173771022036711	2.260497741041736	-0.2676485472897088	2.268182010155737	0	-0.4484880663883687	-11.92739883123604	541.4612536792339	29.00472886114469	2.086608185714761	0	-0.5959707962089527	0	1.546668032648135e-06	0	0	0.3503981087393271	0
4.33	-6.49760521640634	2.050167289171344	-0.2722990774440232	2.290867605878869	0	-0.4476237065623665	-10.77246875071367	545.6595263848812	29.76884363357972	2.087447276162403	0	-0.5960161099578546	0	2.769784811285092e-06	0	0	0.4415047522441071	0
4.335	-5.43041804933764	1.716535033636562	-0.2517030586788925	2.313689302446043	0	-0.4466459719247105	-9.55737279233437	550.5727818794791	30.55262821628946	2.088232963050766	0	-0.5960657968713743	0	4.597622252022759e-06	0	0	0.5213348240799078	0
4.34	-4.042762450968271	1.280709989118676	-0.2045520200914854	2.336688905821586	0	-0.4455485583315812	-8.232409645642447	556.1805966324475	31.31330790568032	2.088965486616772	0	-0.5961162640703725	0	6.914162893056908e-06	0	0	0.586298395418126	0
4.345000000000001	-2.555720344642648	0.8117627976125015	-0.1395714488205359	2.359900806746786	0	-0.4443189915424008	-6.767541506278727	562.4339494722819	31.98580295686178	2.089644575417404	0	-0.5961664677847959	0	9.199793667702405e-06	0	0	0.637283239702171	0
4.35	-1.270260685545996	0.4047769314388122	-0.07408847921743654	2.383314525076875	0	-0.4429194209242074	-5.101621674514378	569.2494638772664	32.55668027844442	2.090273672796716	0	-0.5962162500598821	0	1.05622961230345e-05	0	0	0.6771241497397682	0
4.355	-0.4212584548739214	0.1347975397328307	-0.02593848858349869	2.40666083066547	0	-0.4411964046310326	-3.240240608745603	576.5399510693107	32.99216691221551	2.09085461121299	0	-0.5962696622616082	0	1.022114645501948e-05	0	0	0.7083817098202445	0
4.36	-0.02417856454822744	0.007790479636821963	-0.001475953532683698	2.419142202916607	0	-0.4340772198658888	-1.159935139631425	584.2148908653007	33.33566897587602	2.091389064931597	0	-0.5963347113275478	0	7.045908751935042e-06	0	0	0.7306870768908027	0
4.365	-0.004662951655975175	0.001516696032160086	-0.0002451286782879699	2.40248491262513	0	-0.4251071894169647	1.173361170791469	592.19215534672	33.67875221118858	2.091889035696107	0	-0.5964060086603064	0	1.860520059889263e-06	0	0	0.7345649008080244	0
4.37	-0.003056892095499846	0.0009999732856318625	-0.0001676078364679311	2.423531112072978	0	-0.4328260642596587	3.71387586542221	600.4194122219556	33.99286916639835	2.092368482991443	0	-0.596478693842091	0	1.065998277149764e-06	0	0	0.6990207460669211	0
4.375	-0.001595287458793207	0.0005261386486556747	-8.827008853613874e-05	2.439246215696631	0	-0.4347860321981815	6.495284149852639	608.9157315512775	34.35231289699548	2.092840120903599	0	-0.5965487840033654	0	5.670084312349953e-07	0	0	0.6099122333743026	0
4.38	-0.0007552386727284149	0.000252036225450238	-3.994017028605005e-05	2.440992830071006	0	-0.4210855489739694	9.529774575091453	617.6451257568401	34.77067879523092	2.093319124931643	0	-0.5966056857435217	0	4.149211584497295e-07	0	0	0.4730620019366683	0
4.385	-0.0005372992936616683	0.0001817930010005679	-2.349994418903511e-05	2.398583006723082	0	-0.4011666567128043	12.78317690528509	626.5334813757478	35.22851690590785	2.093814745394138	0	-0.5966455375278557	0	3.553283597220074e-07	0	0	0.2956253926887769	0
4.390000000000001	-0.001341727020831984	0.0004580525152448671	-4.91914379842425e-05	2.354009740736897	0	-0.4253098969995794	16.25956464112398	635.500376915291	35.75869435215148	2.094336040617275	0	-0.5966648010271924	0	4.281219535850784e-07	0	0	0.08675653005391837	0
4.395	-0.005952066224214316	0.002054545783527115	-0.000213381382376086	2.347063575723265	0	-0.4412837813023291	19.90831463215421	644.4908138389085	36.36775422880539	2.094893550635421	0	-0.5966554985390988	0	5.784735306993459e-07	0	0	-0.1432636638033671	0
4.4	-0.02564713463347095	0.008977982603745278	-0.0009311988217500363	2.355137412162261	0	-0.4460001925690086	23.67849451578177	653.4952004195524	37.06851982318673	2.095492919344849	0	-0.596613580594496	0	6.58586789525125e-07	0	0	-0.393591889853866	0
4.405	-0.09078129373550728	0.03230092453774282	-0.003296848730503163	2.368017902120834	0	-0.4471715694972292	27.52352250128159	662.4440126823315	37.85514728689888	2.096135546506739	0	-0.5965384856072693	0	6.040092230853722e-07	0	0	-0.6635467520257805	0
4.41	-0.2550515194878086	0.09243995448572472	-0.009039495619917832	2.382470642469736	0	-0.4473065376555191	31.39952908141582	671.260386542651	38.72074953524158	2.096825384993554	0	-0.596425387348515	0	4.158027829270772e-07	0	0	-0.9446516519948744	0
4.415	-0.5723066602676224	0.2117295663408689	-0.0192551211419269	2.397484145819824	0	-0.447142928015011	35.31082645884976	679.946571327112	39.57659405849215	2.09756714657766	0	-0.5962692990046048	0	1.903333994440759e-07	0	0	-1.230120238678637	0
4.42	-1.047798079343113	0.3963651741044752	-0.03252634167606747	2.412686516177006	0	-0.446908947840544	39.25613163588244	688.5514378220071	40.42313721156451	2.098358203094241	0	-0.596071664114403	0	3.033680585906584e-08	0	0	-1.518497368612231	0
4.425	-1.607767865007842	0.6227874534627519	-0.04466071805719101	2.427889486256249	0	-0.4466813668021646	43.22778943616032	697.1154285239165	41.22373848935371	2.099190876682767	0	-0.5958403007155127	0	-3.919771215943335e-08	0	0	-1.805758931401058	0
4.43	-2.12860166072143	0.8455025920734625	-0.05105172060909301	2.442965983708552	0	-0.4464919987922198	47.22344931843911	705.6550989173097	41.97717815531148	2.100058281048859	0	-0.5955810307760201	0	-4.989016214040909e-08	0	0	-2.085939446680968	0
4.435	-2.505751248667259	1.021902221743828	-0.04960616899054631	2.457811089272331	0	-0.4463540118113541	51.2045108735271	714.2542549410915	42.73462501311694	2.100953560053124	0	-0.5952969379887896	0	-3.832149716997968e-08	0	0	-2.357749111815508	0
4.44	-2.698743375134764	1.131404724602273	-0.04156112282706727	2.472332277741281	0	-0.4462735442200229	55.11413973512629	723.003791700822	43.52261065433295	2.10186861079282	0	-0.594992133648289	0	-2.484272627889528e-08	0	0	-2.625194862633066	0
4.445	-2.730537726240623	1.178164157847177	-0.0299235480188353	2.486447897084018	0	-0.4462503308587347	58.93390655135261	731.8894514505366	44.38615410045588	2.10280107842977	0	-0.5946622409361593	0	-1.529196895500018e-08	0	0	-2.892057459670539	0
4.45	-2.665391986367054	1.184924827331748	-0.01769027431677839	2.500085319834587	0	-0.4462814526874039	62.61057213273646	740.8854910430999	45.27893489855531	2.103753189141038	0	-0.5943000561766451	0	-9.354257805849198e-09	0	0	-3.160397851516336	0
